<svg width="69" height="34" viewBox="0 0 69 34" fill="none" xmlns="http://www.w3.org/2000/svg">
<path fill-rule="evenodd" clip-rule="evenodd" d="M0.524928 1.95024C-0.555676 3.8413 0.0828631 6.22354 1.97392 7.32871L8.62947 11.1845V18.9452C8.62947 21.1064 10.3977 22.8747 12.5589 22.8747C14.7201 22.8747 16.4884 21.1064 16.4884 18.9452V9.12152C16.4884 8.50755 16.3411 7.91812 16.0955 7.40238C15.7762 6.61649 15.2113 5.90427 14.4009 5.43765L5.90339 0.525807C4.01234 -0.554798 1.60553 0.0837399 0.524928 1.95024Z" fill="#0785DB"/>
<path d="M21.1541 7.89356C23.3243 7.89356 25.0836 6.13428 25.0836 3.96409C25.0836 1.79391 23.3243 0.0346222 21.1541 0.0346222C18.9839 0.0346222 17.2246 1.79391 17.2246 3.96409C17.2246 6.13428 18.9839 7.89356 21.1541 7.89356Z" fill="#6BB6FF"/>
<path d="M28.4973 29.0145L30.0937 25.5271L24.9854 14.9912H28.2026L31.6409 22.5554L34.8581 14.9912H37.8789L30.2656 31.7897C28.8411 31.7897 27.9079 30.3161 28.4973 29.0145Z" fill="black"/>
<path d="M43.7005 14.6228C44.6092 14.6228 45.4196 14.7947 46.181 15.114C46.9423 15.4332 47.5808 15.8753 48.1457 16.4402C48.7106 17.005 49.1281 17.6681 49.4473 18.4295C49.7666 19.1908 49.914 20.0504 49.914 20.9591C49.914 21.8678 49.7666 22.7273 49.4473 23.4887C49.1281 24.2746 48.7106 24.9377 48.1457 25.5025C47.5808 26.0674 46.9423 26.5094 46.181 26.8287C45.4196 27.148 44.6092 27.3199 43.7005 27.3199C42.8164 27.3199 42.0059 27.148 41.2446 26.8287C40.4832 26.5094 39.8201 26.0674 39.2798 25.5025C38.7395 24.9377 38.2975 24.2746 38.0028 23.4887C37.6835 22.7028 37.5361 21.8678 37.5361 20.9591C37.5361 20.0504 37.6835 19.1908 38.0028 18.4295C38.322 17.6681 38.7395 17.005 39.2798 16.4402C39.8201 15.8753 40.4832 15.4332 41.2446 15.114C42.0059 14.7701 42.8164 14.6228 43.7005 14.6228ZM43.7005 24.7657C44.1426 24.7657 44.5601 24.6921 44.953 24.5201C45.346 24.3482 45.7143 24.1026 46.0336 23.7834C46.3529 23.4641 46.5985 23.0712 46.7704 22.58C46.9423 22.1133 47.0405 21.5485 47.0405 20.9345C47.0405 20.3205 46.9423 19.7557 46.7704 19.289C46.5985 18.8224 46.3529 18.4295 46.0336 18.1102C45.7143 17.7909 45.3705 17.5453 44.953 17.398C44.5601 17.2506 44.1426 17.1524 43.7005 17.1524C43.2584 17.1524 42.8409 17.2261 42.448 17.398C42.055 17.5453 41.6866 17.7909 41.3919 18.1102C41.0972 18.4295 40.8516 18.8224 40.6552 19.289C40.4587 19.7557 40.3604 20.296 40.3604 20.9345C40.3604 21.5485 40.4587 22.1133 40.6552 22.58C40.8516 23.0466 41.0972 23.4641 41.3919 23.7834C41.6866 24.1026 42.055 24.3482 42.448 24.5201C42.8409 24.6675 43.2584 24.7657 43.7005 24.7657Z" fill="black"/>
<path d="M51.6826 26.9515V11.4792C51.6826 10.2021 52.7141 9.17064 53.9912 9.17064H54.5315V24.7166C54.5315 25.9446 53.5246 26.9515 52.2966 26.9515H51.6826Z" fill="black"/>
<path d="M62.4876 14.6228C63.3963 14.6228 64.2067 14.7947 64.9681 15.114C65.7294 15.4332 66.368 15.8753 66.9328 16.4402C67.4977 17.005 67.9152 17.6681 68.2345 18.4295C68.5537 19.1908 68.7011 20.0504 68.7011 20.9591C68.7011 21.8678 68.5537 22.7273 68.2345 23.4887C67.9152 24.2746 67.4977 24.9377 66.9328 25.5025C66.368 26.0674 65.7294 26.5094 64.9681 26.8287C64.2067 27.148 63.3963 27.3199 62.4876 27.3199C61.6035 27.3199 60.793 27.148 60.0317 26.8287C59.2703 26.5094 58.6072 26.0674 58.0669 25.5025C57.5266 24.9377 57.0846 24.2746 56.7899 23.4887C56.4706 22.7028 56.3232 21.8678 56.3232 20.9591C56.3232 20.0504 56.4706 19.1908 56.7899 18.4295C57.1091 17.6681 57.5266 17.005 58.0669 16.4402C58.6072 15.8753 59.2703 15.4332 60.0317 15.114C60.793 14.7701 61.6035 14.6228 62.4876 14.6228ZM62.4876 24.7657C62.9297 24.7657 63.3472 24.6921 63.7401 24.5201C64.1331 24.3482 64.5014 24.1026 64.8207 23.7834C65.14 23.4641 65.3856 23.0712 65.5575 22.58C65.7294 22.1133 65.8276 21.5485 65.8276 20.9345C65.8276 20.3205 65.7294 19.7557 65.5575 19.289C65.3856 18.8224 65.14 18.4295 64.8207 18.1102C64.5014 17.7909 64.1576 17.5453 63.7401 17.398C63.3472 17.2506 62.9297 17.1524 62.4876 17.1524C62.0455 17.1524 61.628 17.2261 61.2351 17.398C60.8421 17.5453 60.4737 17.7909 60.179 18.1102C59.8843 18.4295 59.6387 18.8224 59.4423 19.289C59.2458 19.7557 59.1476 20.296 59.1476 20.9345C59.1476 21.5485 59.2458 22.1133 59.4423 22.58C59.6387 23.0466 59.8843 23.4641 60.179 23.7834C60.4737 24.1026 60.8421 24.3482 61.2351 24.5201C61.628 24.6675 62.0455 24.7657 62.4876 24.7657Z" fill="black"/>
<path d="M38.4694 32.7967C38.494 32.9686 38.5677 33.116 38.6905 33.2388C38.8133 33.3616 38.9852 33.4107 39.1817 33.4107C39.722 33.4107 39.9921 33.116 39.9921 32.5511V32.2564C39.9184 32.3792 39.8202 32.4774 39.6974 32.5511C39.5501 32.6248 39.3781 32.6739 39.1817 32.6739C38.9852 32.6739 38.8133 32.6494 38.6414 32.5757C38.4695 32.502 38.3467 32.4038 38.2239 32.281C38.1011 32.1582 38.0028 32.0108 37.9537 31.8389C37.88 31.667 37.8555 31.4705 37.8555 31.274C37.8555 31.0776 37.88 30.9056 37.9537 30.7337C38.0274 30.5618 38.1011 30.4145 38.2239 30.2917C38.3467 30.1689 38.4695 30.0706 38.6414 29.997C38.8133 29.9233 38.9852 29.8742 39.1817 29.8742C39.4027 29.8742 39.5992 29.9233 39.722 29.997C39.8693 30.0706 39.9676 30.1689 40.0167 30.2917V29.9233H40.6798V32.5266C40.6798 32.723 40.6552 32.8949 40.6061 33.0914C40.557 33.2633 40.4587 33.4352 40.3605 33.558C40.2377 33.7054 40.0904 33.8036 39.9184 33.8773C39.722 33.951 39.5009 34.0001 39.2308 34.0001C39.0343 34.0001 38.8624 33.9755 38.715 33.9264C38.5677 33.8773 38.4203 33.8036 38.2975 33.7054C38.1747 33.6072 38.0765 33.5089 38.0028 33.3616C37.9291 33.2142 37.88 33.0914 37.8555 32.9441L38.4694 32.7967ZM39.2799 32.109C39.5009 32.109 39.6728 32.0354 39.8202 31.888C39.9676 31.7407 40.0167 31.5442 40.0167 31.2986C40.0167 31.1758 39.9921 31.0776 39.9676 30.9548C39.9184 30.8565 39.8693 30.7583 39.8202 30.7092C39.7465 30.6355 39.6729 30.5864 39.5992 30.5373C39.5009 30.4881 39.4027 30.4881 39.3045 30.4881C39.0834 30.4881 38.9115 30.5618 38.7642 30.7092C38.6168 30.8565 38.5431 31.053 38.5431 31.2986C38.5431 31.5442 38.6168 31.7407 38.7396 31.888C38.887 32.0354 39.0589 32.109 39.2799 32.109Z" fill="black"/>
<path d="M42.9631 30.6108C42.8895 30.6108 42.8158 30.5863 42.7421 30.5863C42.472 30.5863 42.2755 30.6599 42.1527 30.8073C42.0299 30.9547 41.9562 31.1511 41.9562 31.4213V32.7966H41.2686V29.9232H41.9317V30.3898C42.0053 30.2424 42.1036 30.1196 42.2509 30.0214C42.3983 29.9232 42.5702 29.8986 42.7667 29.8986C42.8158 29.8986 42.8403 29.8986 42.8895 29.8986C42.914 29.8986 42.9386 29.8986 42.9631 29.8986V30.6108Z" fill="black"/>
<path d="M44.5352 29.8495C44.7563 29.8495 44.9527 29.8986 45.1246 29.9723C45.2966 30.046 45.4685 30.1442 45.5913 30.2916C45.7141 30.4389 45.8369 30.5863 45.9105 30.7828C45.9842 30.9792 46.0333 31.1757 46.0333 31.3967C46.0333 31.6178 45.9842 31.8142 45.9105 32.0107C45.8369 32.2072 45.7386 32.3545 45.5913 32.5019C45.4685 32.6493 45.2966 32.7475 45.1246 32.8212C44.9527 32.8948 44.7563 32.944 44.5352 32.944C44.3142 32.944 44.1177 32.8948 43.9458 32.8212C43.7739 32.7475 43.602 32.6493 43.4792 32.5019C43.3564 32.3545 43.2336 32.2072 43.1599 32.0107C43.0862 31.8142 43.0371 31.6178 43.0371 31.3967C43.0371 31.1757 43.0862 30.9792 43.1599 30.7828C43.2336 30.5863 43.3318 30.4389 43.4792 30.2916C43.602 30.1442 43.7739 30.046 43.9458 29.9723C44.1177 29.8986 44.3387 29.8495 44.5352 29.8495ZM44.5352 32.2809C44.6335 32.2809 44.7317 32.2563 44.8299 32.2317C44.9282 32.1826 45.0018 32.1335 45.0755 32.0598C45.1492 31.9862 45.1983 31.8879 45.2474 31.7651C45.2966 31.6423 45.3211 31.5195 45.3211 31.3722C45.3211 31.2248 45.2966 31.102 45.2474 30.9792C45.1983 30.8564 45.1492 30.7828 45.0755 30.6845C45.0018 30.5863 44.9036 30.5617 44.8299 30.5126C44.7317 30.4635 44.6335 30.4635 44.5352 30.4635C44.437 30.4635 44.3387 30.488 44.2405 30.5126C44.1423 30.5617 44.0686 30.6108 43.9949 30.6845C43.9212 30.7582 43.8721 30.8564 43.823 30.9792C43.7739 31.102 43.7493 31.2248 43.7493 31.3722C43.7493 31.5195 43.7739 31.6423 43.823 31.7651C43.8721 31.8879 43.9212 31.9862 43.9949 32.0598C44.0686 32.1335 44.1423 32.1826 44.2405 32.2317C44.3387 32.2563 44.437 32.2809 44.5352 32.2809Z" fill="black"/>
<path d="M48.3171 32.5019C48.2435 32.6247 48.1452 32.7229 47.9733 32.7966C47.8014 32.8703 47.654 32.8948 47.4821 32.8948C47.3102 32.8948 47.1628 32.8703 47.0155 32.7966C46.8927 32.7475 46.7699 32.6492 46.6717 32.551C46.5734 32.4528 46.4997 32.33 46.4506 32.1826C46.4015 32.0353 46.377 31.8879 46.377 31.7406V29.9232H47.0646V31.6178C47.0646 31.716 47.0646 31.7897 47.0892 31.8633C47.1137 31.937 47.1383 32.0107 47.1874 32.0598C47.2365 32.1089 47.2856 32.1581 47.3593 32.2072C47.433 32.2317 47.5312 32.2563 47.6295 32.2563C47.8259 32.2563 47.9733 32.2072 48.0715 32.0844C48.1698 31.9616 48.2189 31.8142 48.2189 31.6178V29.9232H48.9065V32.2809C48.9065 32.4036 48.9065 32.5019 48.9065 32.6001C48.9065 32.6984 48.9311 32.772 48.9311 32.8212H48.268C48.268 32.7966 48.2434 32.7475 48.2434 32.6738C48.2434 32.6001 48.3171 32.551 48.3171 32.5019Z" fill="black"/>
<path d="M49.6191 33.9263V29.9477H50.2822V30.3407C50.3559 30.2179 50.4787 30.1196 50.6261 30.0214C50.7734 29.9232 50.9699 29.8986 51.1909 29.8986C51.412 29.8986 51.5839 29.9477 51.7558 30.0214C51.9277 30.0951 52.0505 30.1933 52.1733 30.3407C52.2961 30.4635 52.3698 30.6354 52.4189 30.8073C52.468 30.9792 52.5171 31.1757 52.5171 31.3967C52.5171 31.6178 52.4926 31.8142 52.4189 31.9861C52.3452 32.1581 52.2715 32.33 52.1487 32.4528C52.0259 32.6001 51.8786 32.6984 51.7312 32.772C51.5593 32.8457 51.3874 32.8948 51.1664 32.8948C50.9699 32.8948 50.7734 32.8457 50.6261 32.772C50.4787 32.6984 50.3559 32.6001 50.2822 32.5019V33.9509H49.6191V33.9263ZM51.854 31.3722C51.854 31.102 51.7804 30.881 51.633 30.7336C51.4856 30.5617 51.3137 30.488 51.0681 30.488C50.9453 30.488 50.8471 30.5126 50.7489 30.5617C50.6506 30.6108 50.577 30.6599 50.5033 30.7336C50.4296 30.8073 50.3805 30.9055 50.3559 31.0038C50.3068 31.102 50.3068 31.2248 50.3068 31.3722C50.3068 31.6423 50.3805 31.8633 50.5278 32.0353C50.6752 32.2072 50.8471 32.2808 51.0927 32.2808C51.3137 32.2808 51.5102 32.2072 51.6576 32.0353C51.7804 31.8633 51.854 31.6423 51.854 31.3722Z" fill="black"/>
</svg>